<?xml version="1.0" standalone="no"?>
<!DOCTYPE svg PUBLIC "-//W3C//DTD SVG 20010904//EN"
 "http://www.w3.org/TR/2001/REC-SVG-20010904/DTD/svg10.dtd">
<svg version="1.0" xmlns="http://www.w3.org/2000/svg"
 width="430.000000pt" height="430.000000pt" viewBox="0 0 430.000000 430.000000"
 preserveAspectRatio="xMidYMid meet">

<g transform="translate(0.000000,430.000000) scale(0.100000,-0.100000)"
fill="#000000" stroke="none">
<path d="M2619 3242 c-66 -22 -158 -81 -195 -125 -106 -125 -101 -296 15 -480
52 -81 116 -141 188 -174 48 -22 65 -25 138 -21 68 4 95 10 148 36 139 69 215
171 225 302 2 39 2 70 0 70 -3 0 -44 -18 -92 -40 l-86 -40 0 -39 c0 -44 -33
-92 -81 -116 -36 -19 -102 -19 -138 0 -35 18 -113 104 -108 119 2 6 95 64 207
128 112 65 208 122 213 127 14 14 -44 101 -108 164 -96 94 -214 126 -326 89z
m128 -151 c22 -11 86 -81 81 -87 -2 -2 -62 -37 -134 -79 l-129 -75 -17 38
c-35 74 -18 160 39 197 51 34 105 36 160 6z"/>
<path d="M1794 3020 c-51 -17 -481 -254 -508 -280 -9 -9 492 -890 507 -890 13
0 177 95 177 103 0 5 -36 70 -79 145 -44 76 -83 145 -86 153 -5 12 28 36 135
100 163 96 226 155 260 247 54 143 -25 343 -165 414 -58 30 -163 34 -241 8z
m136 -192 c75 -51 103 -170 56 -238 -20 -30 -142 -111 -253 -169 -24 -12 -11
-30 -143 198 -22 38 -40 73 -40 78 0 10 176 111 234 135 58 24 107 22 146 -4z"/>
<path d="M806 2949 c-3 -8 -61 -229 -129 -491 l-123 -477 482 -833 c266 -458
487 -832 491 -831 4 1 64 220 133 487 l126 486 -481 829 c-264 457 -484 833
-488 837 -3 4 -9 1 -11 -7z"/>
<path d="M2772 1766 c-464 -266 -849 -489 -856 -497 -12 -13 -270 -989 -263
-995 4 -5 1698 963 1712 978 11 12 259 987 253 994 -2 1 -383 -215 -846 -480z"/>
</g>
</svg>
