<svg width="80%" height="80%" version="1.2" baseProfile="tiny" xmlns="http://www.w3.org/2000/svg" viewBox="20 50 260 260" overflow="visible" xml:space="preserve">
<g><path style="opacity:0.992" fill="#ededed" d="M 257.5,19.5 C 259.592,19.5614 261.092,20.5614 262,22.5C 294.633,78.9345 327.133,135.434 359.5,192C 357.968,194.117 355.968,195.784 353.5,197C 297.422,228.788 241.588,260.954 186,293.5C 152.7,235.732 119.533,177.899 86.5,120C 86.6448,119.228 86.9781,118.561 87.5,118C 144.393,85.3924 201.06,52.5591 257.5,19.5 Z"/></g>
<g><path style="opacity:1" fill="#0731a7" d="M 264.5,103.5 C 276.959,102.485 287.459,106.485 296,115.5C 299.414,119.994 302.581,124.66 305.5,129.5C 305.023,130.478 304.357,131.311 303.5,132C 289.574,139.601 275.907,147.601 262.5,156C 268.15,168.335 277.15,172.002 289.5,167C 294.509,163.233 296.842,158.233 296.5,152C 301.876,149.597 307.209,147.097 312.5,144.5C 314.63,160.406 308.63,172.239 294.5,180C 272.726,191.356 255.56,186.523 243,165.5C 226.13,136.275 233.297,115.609 264.5,103.5 Z"/></g>
<g><path style="opacity:1" fill="#e9eaec" d="M 261.5,118.5 C 270.908,117.204 277.908,120.704 282.5,129C 273.585,134.041 264.751,139.207 256,144.5C 249.776,133.808 251.61,125.141 261.5,118.5 Z"/></g>
<g><path style="opacity:1" fill="#0530a7" d="M 182.5,125.5 C 205.558,124.555 218.558,135.555 221.5,158.5C 221.129,170.408 216.129,179.908 206.5,187C 197.13,192.012 188.13,197.512 179.5,203.5C 185.167,213.5 190.833,223.5 196.5,233.5C 191.276,238.034 185.443,241.701 179,244.5C 161.089,215.688 143.922,186.355 127.5,156.5C 145.115,144.86 163.448,134.527 182.5,125.5 Z"/></g>
<g><path style="opacity:0.983" fill="#666666" d="M 79.5,131.5 C 82.3462,133.475 84.5129,136.141 86,139.5C 116.414,192.664 147.081,245.664 178,298.5C 178.667,300.5 178.667,302.5 178,304.5C 169.809,336.598 161.309,368.598 152.5,400.5C 119.801,344.963 87.3005,289.296 55,233.5C 54.3333,231.5 54.3333,229.5 55,227.5C 63.4849,195.56 71.6516,163.56 79.5,131.5 Z"/></g>
<g><path style="opacity:1" fill="#eaebed" d="M 180.5,144.5 C 195.058,144.589 201.558,151.922 200,166.5C 199.269,168.899 198.102,171.065 196.5,173C 188.083,178.292 179.583,183.459 171,188.5C 165.114,179.229 159.614,169.729 154.5,160C 162.738,154.05 171.404,148.884 180.5,144.5 Z"/></g>
<g><path style="opacity:1" fill="#000000" d="M 359.5,204.5 C 360.586,204.62 361.253,205.287 361.5,206.5C 353.333,239.167 345.167,271.833 337,304.5C 279.915,337.293 222.748,369.96 165.5,402.5C 165.167,401.833 164.833,401.167 164.5,400.5C 173,367.833 181.5,335.167 190,302.5C 246.669,269.97 303.169,237.303 359.5,204.5 Z"/></g>
</svg>
